<?xml version="1.0" encoding="UTF-8" standalone="no"?>
<!DOCTYPE svg PUBLIC "-//W3C//DTD SVG 1.1//EN" "http://www.w3.org/Graphics/SVG/1.1/DTD/svg11.dtd">
<svg width="100%" height="100%" viewBox="0 0 1024 1024" version="1.1" xmlns="http://www.w3.org/2000/svg" xmlns:xlink="http://www.w3.org/1999/xlink" xml:space="preserve" xmlns:serif="http://www.serif.com/" style="filter:url(#s3shadow);fill-rule:evenodd;clip-rule:evenodd;stroke-linecap:round;stroke-linejoin:round;stroke-miterlimit:10;">
        <defs>
            <filter id="s3shadow">
              <feDropShadow
                dx="0"
                dy="0"
                stdDeviation="10"
                flood-color="cyan"
                flood-opacity="98.5"
              />
            </filter>
          </defs>
    <g id="scrum3">
        <g>
            <g transform="matrix(1,0,0,1,-32.076,0)">
                <circle cx="544.076" cy="863.442" r="110.898" style="fill:white;fill-opacity:0.09;"/>
                <path d="M544.076,752.545C605.282,752.545 654.974,802.236 654.974,863.442C654.974,924.648 605.282,974.34 544.076,974.34C482.87,974.34 433.178,924.648 433.178,863.442C433.178,802.236 482.87,752.545 544.076,752.545ZM544.076,755.307C603.757,755.307 652.211,803.761 652.211,863.442C652.211,923.124 603.757,971.577 544.076,971.577C484.394,971.577 435.941,923.124 435.941,863.442C435.941,803.761 484.394,755.307 544.076,755.307Z" style="fill:white;"/>
            </g>
            <g transform="matrix(-1,-1.22465e-16,1.22465e-16,-1,1052.36,1024)">
                <circle cx="544.076" cy="863.442" r="110.898" style="fill:white;fill-opacity:0.09;"/>
                <path d="M544.076,752.545C605.282,752.545 654.974,802.236 654.974,863.442C654.974,924.648 605.282,974.34 544.076,974.34C482.87,974.34 433.178,924.648 433.178,863.442C433.178,802.236 482.87,752.545 544.076,752.545ZM544.076,755.307C603.757,755.307 652.211,803.761 652.211,863.442C652.211,923.124 603.757,971.577 544.076,971.577C484.394,971.577 435.941,923.124 435.941,863.442C435.941,803.761 484.394,755.307 544.076,755.307Z" style="fill:white;"/>
            </g>
            <g transform="matrix(-0.5,-0.866025,0.866025,-0.5,337.848,1237.58)">
                <circle cx="544.076" cy="863.442" r="110.898" style="fill:white;fill-opacity:0.09;"/>
                <path d="M544.076,752.545C605.282,752.545 654.974,802.236 654.974,863.442C654.974,924.648 605.282,974.34 544.076,974.34C482.87,974.34 433.178,924.648 433.178,863.442C433.178,802.236 482.87,752.545 544.076,752.545ZM544.076,755.307C603.757,755.307 652.211,803.761 652.211,863.442C652.211,923.124 603.757,971.577 544.076,971.577C484.394,971.577 435.941,923.124 435.941,863.442C435.941,803.761 484.394,755.307 544.076,755.307Z" style="fill:white;"/>
            </g>
            <g transform="matrix(6.71482,0,0,6.71482,-2178.81,-2974.38)">
                <text x="379.571px" y="523.448px" style="font-family:'Raleway-Black', 'Raleway', sans-serif;font-weight:900;font-size:12px;fill:white;">SCRUM</text>
            </g>
            <g transform="matrix(-0.5,0.866025,-0.866025,-0.5,1224.66,298.424)">
                <circle cx="544.076" cy="863.442" r="110.898" style="fill:white;fill-opacity:0.09;"/>
                <path d="M544.076,752.545C605.282,752.545 654.974,802.236 654.974,863.442C654.974,924.648 605.282,974.34 544.076,974.34C482.87,974.34 433.178,924.648 433.178,863.442C433.178,802.236 482.87,752.545 544.076,752.545ZM544.076,755.307C603.757,755.307 652.211,803.761 652.211,863.442C652.211,923.124 603.757,971.577 544.076,971.577C484.394,971.577 435.941,923.124 435.941,863.442C435.941,803.761 484.394,755.307 544.076,755.307Z" style="fill:white;"/>
            </g>
            <g transform="matrix(0.5,0.866025,-0.866025,0.5,682.439,-213.576)">
                <circle cx="544.076" cy="863.442" r="110.898" style="fill:white;fill-opacity:0.09;"/>
                <path d="M544.076,752.545C605.282,752.545 654.974,802.236 654.974,863.442C654.974,924.648 605.282,974.34 544.076,974.34C482.87,974.34 433.178,924.648 433.178,863.442C433.178,802.236 482.87,752.545 544.076,752.545ZM544.076,755.307C603.757,755.307 652.211,803.761 652.211,863.442C652.211,923.124 603.757,971.577 544.076,971.577C484.394,971.577 435.941,923.124 435.941,863.442C435.941,803.761 484.394,755.307 544.076,755.307Z" style="fill:white;"/>
            </g>
            <g transform="matrix(0.5,-0.866025,0.866025,0.5,-204.371,725.576)">
                <circle cx="544.076" cy="863.442" r="110.898" style="fill:white;fill-opacity:0.09;"/>
                <path d="M544.076,752.545C605.282,752.545 654.974,802.236 654.974,863.442C654.974,924.648 605.282,974.34 544.076,974.34C482.87,974.34 433.178,924.648 433.178,863.442C433.178,802.236 482.87,752.545 544.076,752.545ZM544.076,755.307C603.757,755.307 652.211,803.761 652.211,863.442C652.211,923.124 603.757,971.577 544.076,971.577C484.394,971.577 435.941,923.124 435.941,863.442C435.941,803.761 484.394,755.307 544.076,755.307Z" style="fill:white;"/>
            </g>
        </g>
        <g>
            <g id="Layer1">
                <g transform="matrix(0.868559,0,0,0.868559,59.6911,102.999)">
                    <g transform="matrix(1.13636,0,0,1.29891,-69.4839,-49.4727)">
                        <path d="M575.602,117.937C575.602,113.324 571.321,109.578 566.048,109.578L465.221,109.578C459.948,109.578 455.666,113.324 455.666,117.937L455.666,134.656C455.666,139.269 459.948,143.015 465.221,143.015L566.048,143.015C571.321,143.015 575.602,139.269 575.602,134.656L575.602,117.937ZM569.523,117.937L569.523,134.656C569.523,136.334 567.966,137.696 566.048,137.696L465.221,137.696C463.303,137.696 461.745,136.334 461.745,134.656L461.745,117.937C461.745,116.259 463.303,114.896 465.221,114.896L566.048,114.896C567.966,114.896 569.523,116.259 569.523,117.937Z" style="fill:white;"/>
                    </g>
                    <g transform="matrix(1,0,0,1,7,6)">
                        <rect x="458.545" y="101.728" width="14.887" height="14.887" style="fill:white;"/>
                        <path d="M473.431,101.728L458.545,101.728L458.545,116.614L473.431,116.614L473.431,101.728ZM461.725,104.908L461.725,113.434L470.251,113.434L470.251,104.908L461.725,104.908Z" style="fill:white;"/>
                    </g>
                    <g transform="matrix(1,0,0,0.5392,7,52.8761)">
                        <rect x="482.27" y="101.728" width="73.503" height="7.443" style="fill:white;"/>
                        <rect x="482.27" y="101.728" width="73.503" height="7.443" style="fill:white;"/>
                    </g>
                    <g transform="matrix(0.815939,0,0,0.5392,95.7671,58.9737)">
                        <rect x="482.27" y="101.728" width="73.503" height="7.443" style="fill:white;"/>
                        <rect x="482.27" y="101.728" width="73.503" height="7.443" style="fill:white;"/>
                    </g>
                </g>
                <g transform="matrix(0.868559,0,0,0.868559,71.5231,55.7586)">
                    <g transform="matrix(1.13636,0,0,1.29891,-69.4839,-49.4727)">
                        <path d="M575.602,117.937C575.602,113.324 571.321,109.578 566.048,109.578L465.221,109.578C459.948,109.578 455.666,113.324 455.666,117.937L455.666,134.656C455.666,139.269 459.948,143.015 465.221,143.015L566.048,143.015C571.321,143.015 575.602,139.269 575.602,134.656L575.602,117.937ZM569.523,117.937L569.523,134.656C569.523,136.334 567.966,137.696 566.048,137.696L465.221,137.696C463.303,137.696 461.745,136.334 461.745,134.656C461.745,134.656 461.745,117.937 461.745,117.937C461.745,116.259 463.303,114.896 465.221,114.896C465.221,114.896 566.048,114.896 566.048,114.896C567.966,114.896 569.523,116.259 569.523,117.937Z" style="fill:white;"/>
                    </g>
                    <g transform="matrix(1,0,0,1,7,6)">
                        <rect x="458.545" y="101.728" width="14.887" height="14.887" style="fill:white;"/>
                        <path d="M473.431,101.728L458.545,101.728L458.545,116.614L473.431,116.614L473.431,101.728ZM461.725,104.908L461.725,113.434L470.251,113.434L470.251,104.908L461.725,104.908Z" style="fill:white;"/>
                    </g>
                    <g transform="matrix(1,0,0,0.5392,7,52.8761)">
                        <rect x="482.27" y="101.728" width="73.503" height="7.443" style="fill:white;"/>
                        <rect x="482.27" y="101.728" width="73.503" height="7.443" style="fill:white;"/>
                    </g>
                    <g transform="matrix(0.815939,0,0,0.5392,95.7671,58.9737)">
                        <rect x="482.27" y="101.728" width="73.503" height="7.443" style="fill:white;"/>
                        <rect x="482.27" y="101.728" width="73.503" height="7.443" style="fill:white;"/>
                    </g>
                </g>
                <g transform="matrix(0.868559,0,0,0.868559,57.3179,9.08635)">
                    <g transform="matrix(1.13636,0,0,1.29891,-69.4839,-49.4727)">
                        <path d="M575.602,117.937C575.602,113.324 571.321,109.578 566.048,109.578L465.221,109.578C459.948,109.578 455.666,113.324 455.666,117.937L455.666,134.656C455.666,139.269 459.948,143.015 465.221,143.015L566.048,143.015C571.321,143.015 575.602,139.269 575.602,134.656L575.602,117.937ZM569.523,117.937L569.523,134.656C569.523,136.334 567.966,137.696 566.048,137.696C566.048,137.696 465.221,137.696 465.221,137.696C463.303,137.696 461.745,136.334 461.745,134.656C461.745,134.656 461.745,117.937 461.745,117.937C461.745,116.259 463.303,114.896 465.221,114.896L566.048,114.896C567.966,114.896 569.523,116.259 569.523,117.937Z" style="fill:white;"/>
                    </g>
                    <g transform="matrix(1,0,0,1,7,6)">
                        <rect x="458.545" y="101.728" width="14.887" height="14.887" style="fill:white;"/>
                        <path d="M473.431,101.728L458.545,101.728L458.545,116.614L473.431,116.614L473.431,101.728ZM461.725,104.908L461.725,113.434L470.251,113.434L470.251,104.908L461.725,104.908Z" style="fill:white;"/>
                    </g>
                    <g transform="matrix(1,0,0,0.5392,7,52.8761)">
                        <rect x="482.27" y="101.728" width="73.503" height="7.443" style="fill:white;"/>
                        <rect x="482.27" y="101.728" width="73.503" height="7.443" style="fill:white;"/>
                    </g>
                    <g transform="matrix(0.815939,0,0,0.5392,95.7671,58.9737)">
                        <rect x="482.27" y="101.728" width="73.503" height="7.443" style="fill:white;"/>
                        <rect x="482.27" y="101.728" width="73.503" height="7.443" style="fill:white;"/>
                    </g>
                </g>
                <g transform="matrix(1.91618,0,0,1.91618,752.798,269.623)">
                    <circle cx="32" cy="32" r="30" style="fill:none;stroke:white;stroke-width:4.17px;"/>
                    <path d="M32,7L32,12M32,52L32,57M7,32L12,32M52,32L57,32" style="fill:none;fill-rule:nonzero;stroke:white;stroke-width:4.17px;"/>
                    <circle cx="32" cy="33" r="2" style="fill:none;stroke:white;stroke-width:4.17px;"/>
                    <path d="M30.084,32.432L21,25M48,18L33.822,32.178" style="fill:none;fill-rule:nonzero;stroke:white;stroke-width:4.17px;"/>
                </g>
                <g transform="matrix(5.71138,0,0,5.71138,-3599.12,-3280.33)">
                    <text x="763.548px" y="697.899px" style="font-family:'Raleway-Bold', 'Raleway', sans-serif;font-weight:700;font-size:12px;fill:white;">&lt;/&gt;</text>
                </g>
                <g transform="matrix(1,0,0,1,-10.9945,-17.1877)">
                    <path d="M522.995,814.2C560.229,814.2 590.459,844.43 590.459,881.664C590.459,918.899 560.229,949.128 522.995,949.128C485.76,949.128 455.53,918.899 455.53,881.664C455.53,844.43 485.76,814.2 522.995,814.2ZM522.995,822.2C555.814,822.2 582.459,848.845 582.459,881.664C582.459,914.483 555.814,941.128 522.995,941.128C490.175,941.128 463.53,914.483 463.53,881.664C463.53,848.845 490.175,822.2 522.995,822.2Z" style="fill:white;"/>
                </g>
                <g transform="matrix(0.595109,0,0,0.595109,200.761,338.828)">
                    <path d="M553.593,941.796C544.407,946.484 534.007,949.128 522.995,949.128C511.982,949.128 501.582,946.484 492.396,941.796" style="fill:none;stroke:white;stroke-width:13.44px;stroke-linecap:square;stroke-linejoin:miter;stroke-miterlimit:1.5;stroke-dasharray:2.69,26.89,0,0;stroke-dashoffset:-13.44;"/>
                </g>
                <g transform="matrix(0.595109,0,0,0.595109,200.761,339.753)">
                    <g transform="matrix(1.68036,-0,-0,1.68036,-337.352,-570.909)">
                        <path d="M559.425,889.221L542.506,890.531L541.196,873.611" style="fill:none;stroke:white;stroke-width:8px;stroke-linecap:butt;stroke-linejoin:miter;"/>
                        <path d="M493.79,900.224C480.774,893.582 471.852,880.044 471.852,864.439C471.852,842.281 489.841,824.291 512,824.291C534.159,824.291 552.148,842.281 552.148,864.439C552.148,874.396 548.516,883.511 542.506,890.531" style="fill:none;stroke:white;stroke-width:8px;stroke-linecap:butt;stroke-miterlimit:1.5;"/>
                    </g>
                </g>
                <g transform="matrix(1,0,0,1,-316.281,-192.335)">
                    <g transform="matrix(1,-0,-0,1,316.281,192.335)">
                        <path d="M152.604,629.934L154.344,646.815L171.226,645.074" style="fill:none;stroke:white;stroke-width:8px;stroke-linecap:butt;stroke-linejoin:miter;"/>
                        <path d="M154.344,646.815C166.719,631.595 185.589,621.865 206.714,621.865C243.948,621.865 274.178,652.094 274.178,689.329C274.178,726.563 243.948,756.793 206.714,756.793C169.479,756.793 139.25,726.563 139.25,689.329" style="fill:none;stroke:white;stroke-width:8px;stroke-linecap:butt;stroke-linejoin:miter;stroke-miterlimit:1.5;"/>
                    </g>
                </g>
                <g transform="matrix(1.80682,0,0,1.80682,-191.441,-600.949)">
                    <circle cx="226.585" cy="724.773" r="13.415" style="fill:none;stroke:white;stroke-width:3.32px;stroke-linecap:butt;stroke-linejoin:miter;stroke-miterlimit:1.5;"/>
                </g>
                <path d="M192.206,723.987L183.489,723.987L183.489,654.671L217.213,654.671L229.939,664.386L229.939,681.07C226.267,679.467 222.215,678.578 217.957,678.578C211.311,678.578 205.167,680.744 200.191,684.408L189.146,684.408L189.146,686.481L197.673,686.481C195.789,688.211 194.127,690.178 192.734,692.334L189.146,692.334L189.146,694.408L191.51,694.408C189.239,698.632 187.951,703.459 187.951,708.584C187.951,714.213 189.504,719.483 192.206,723.987ZM210.197,692.334C212.548,691.209 215.18,690.578 217.957,690.578C222.556,690.578 226.755,692.306 229.939,695.148L229.939,722.021C229.118,722.754 228.229,723.412 227.283,723.987L208.631,723.987C203.429,720.829 199.951,715.11 199.951,708.584C199.951,706.479 200.313,704.457 200.979,702.578L205.122,702.578L205.122,700.505L201.864,700.505C203.064,698.121 204.778,696.04 206.86,694.408L221.098,694.408L221.098,692.334L210.197,692.334ZM221.098,676.359L189.146,676.359L189.146,678.432L221.098,678.432L221.098,676.359ZM221.098,668.92L189.146,668.92L189.146,670.993L221.098,670.993L221.098,668.92ZM227.256,664.834L217.256,657.11L215.915,664.834L227.256,664.834Z" style="fill:white;"/>
                <path d="M244.841,726.416C248.379,728.432 252.418,731.421 256.492,735.132C257.528,736.076 258.566,737.066 259.599,738.099C270.398,748.897 276.545,760.283 273.319,763.509C270.094,766.735 258.707,760.587 247.909,749.789C246.839,748.719 245.815,747.643 244.841,746.571C241.212,742.573 238.281,738.614 236.284,735.132C239.659,732.797 242.567,729.835 244.841,726.416Z" style="fill:white;"/>
            </g>
            <g transform="matrix(0.755423,0.321687,-0.321687,0.755423,775.122,277.327)">
                <path d="M-615.034,400.124C-614.358,407.687 -611.6,413.601 -607.955,418.566C-604.578,414.295 -601.63,407.887 -600.893,400.189C-599.79,400.177 -598.512,400.162 -597.023,400.142C-597.023,414.264 -602.056,426.043 -607.955,433.503C-614.316,424.84 -618.887,414.264 -618.887,400.142C-617.364,400.132 -616.099,400.126 -615.034,400.124ZM-625.719,361.203C-627.691,349.522 -628.831,335.737 -628.831,320.978C-628.831,287.074 -620.166,255.414 -608.129,244.684C-595.651,255.414 -587.428,287.074 -587.428,320.978C-587.428,335.631 -588.551,349.326 -590.498,360.955L-575.449,373.081L-567.075,397.272L-595.801,389.721L-595.801,390.992C-595.801,394.458 -598.616,397.272 -602.082,397.272L-615.107,397.272C-618.574,397.272 -621.388,394.458 -621.388,390.992L-621.388,390.057L-648.835,397.272L-640.461,373.081L-625.719,361.203ZM-607.955,277.366C-602.835,277.366 -598.679,281.523 -598.679,286.642C-598.679,291.762 -602.835,295.918 -607.955,295.918C-613.075,295.918 -617.231,291.762 -617.231,286.642C-617.231,281.523 -613.075,277.366 -607.955,277.366Z" style="fill:white;"/>
            </g>
        </g>
    </g>
</svg>
