<?xml version="1.0" encoding="UTF-8" standalone="no"?>
<!DOCTYPE svg PUBLIC "-//W3C//DTD SVG 1.1//EN" "http://www.w3.org/Graphics/SVG/1.1/DTD/svg11.dtd">
<svg width="100%" height="100%" viewBox="0 0 1024 1024" version="1.1" xmlns="http://www.w3.org/2000/svg" xmlns:xlink="http://www.w3.org/1999/xlink" xml:space="preserve" xmlns:serif="http://www.serif.com/" style="filter:url(#shadow);fill:none;stroke:#55327e ;fill-rule:evenodd;clip-rule:evenodd;stroke-linecap:round;stroke-linejoin:round;stroke-miterlimit:1.5;">
        <defs>
            <filter id="shadow">
              <feDropShadow
                dx="0"
                dy="0"
                stdDeviation="8"
                flood-color="#6013db"
                flood-opacity="98.5"
              />
            </filter>
          </defs>
    <g transform="matrix(0.53073,0,0,0.53073,254.17,267.272)">
        <circle cx="485.802" cy="461.116" r="409.025" style="stroke-width:1.92px;"/>
    </g>
    <g transform="matrix(0.494632,0,0,0.494632,271.706,283.917)">
        <path d="M362.355,851.144L366.139,837.531L380.006,841.386C410.64,849.902 442.769,854.811 475.905,855.628L490.293,855.982L489.945,870.115L485.802,870.142C442.775,870.142 401.29,863.483 362.355,851.144ZM630.662,843.705C591.108,858.71 548.627,867.751 504.324,869.72L503.201,855.633L517.548,854.489C550.498,851.862 582.312,845.181 612.492,834.944L626.121,830.32L630.662,843.705ZM235.585,784.599L243.846,773.132L255.524,781.543C281.657,800.367 310.181,816.075 340.551,828.119L353.93,833.425L348.72,846.561C307.577,831.908 269.462,810.852 235.585,784.599ZM753.551,770.231C721.103,798.367 684.189,821.484 644.018,838.364L638.085,825.538L651.147,819.495C680.751,805.799 708.376,788.541 733.471,768.274L744.668,759.231L753.551,770.231ZM139.379,678.549L151.069,670.605L159.158,682.509C177.416,709.379 198.902,733.883 223.055,755.462L233.787,765.051L224.371,775.591C191.201,747.985 162.461,715.232 139.379,678.549ZM843.764,659.037C822.713,696.995 795.804,731.26 764.254,760.619L754.267,750.609L764.456,740.444C787.356,717.599 807.468,691.96 824.235,664.085L831.653,651.752L843.764,659.037ZM85.593,545.867L99.305,542.462L102.774,556.429C110.686,588.281 122.472,618.609 137.602,646.884L144.393,659.574L131.933,666.241C110.495,629.366 94.658,588.853 85.593,545.867ZM890.08,523.568C883.39,567.136 869.817,608.447 850.518,646.336L837.706,640.371L843.78,627.324C857.288,598.31 867.371,567.385 873.507,535.07L876.191,520.931L890.08,523.568ZM80.923,402.755L94.975,404.264L93.439,418.573C91.939,432.55 91.169,446.744 91.169,461.116C91.169,479.584 92.44,497.756 94.899,515.552L96.869,529.808L82.871,531.743C78.864,508.807 76.777,485.204 76.777,461.116C76.777,441.296 78.19,421.803 80.923,402.755ZM886.846,380.414C892.082,406.49 894.827,433.485 894.827,461.116C894.827,477.415 893.872,493.493 892.006,509.312L877.92,508.155L879.098,493.811C879.984,483.029 880.435,472.125 880.435,461.116C880.435,439.253 878.655,417.802 875.229,396.902L872.901,382.699L886.846,380.414ZM125.852,266.82L138.512,273.106L132.111,285.997C117.864,314.688 107.007,345.354 100.065,377.472L97.024,391.539L83.208,388.553C90.978,345.229 105.579,304.264 125.852,266.82ZM834.409,247.194C856.783,283.543 873.63,323.656 883.769,366.362L870.147,370.113L866.326,356.238C857.62,324.626 845.076,294.598 829.227,266.687L822.12,254.172L834.409,247.194ZM214.945,154.727L224.678,164.981L214.239,174.889C190.764,197.17 170.023,222.305 152.574,249.735L144.849,261.879L132.924,254.293C154.901,216.905 182.646,183.312 214.945,154.727ZM739.274,140.18C773.148,166.974 802.687,199.014 826.656,235.077L815.169,243.31L806.785,231.612C787.872,205.221 765.787,181.254 741.09,160.271L730.122,150.952L739.274,140.18ZM337.087,80.016L342.696,92.987L329.485,98.699C299.524,111.654 271.482,128.217 245.908,147.839L234.489,156.6L225.882,145.382C258.992,118.087 296.461,95.894 337.087,80.016ZM613.184,72.354C654.72,85.973 693.333,106.068 727.838,131.455L719.867,143.126L707.982,135.008C681.407,116.856 652.504,101.867 621.816,90.584L608.308,85.618L613.184,72.354ZM350.575,75.014C392.905,60.166 438.418,52.091 485.802,52.091C525.218,52.091 563.339,57.679 599.437,68.118L595.998,81.822L582.039,78.319C551.232,70.588 518.993,66.484 485.802,66.484L474.837,66.484L463.928,67.08C430.883,68.888 398.914,74.769 368.517,84.231L354.775,88.509L350.575,75.014Z" style="fill:#55327e;"/>
    </g>
</svg>
